# xmcd
#
# Track frame offsets: 
#        182
#        18131
#        32629
#        46419
#        61376
#        81434
#        106756
#        140924
#        162569
#
# Disc length: 2574 seconds
#
# Revision: 3
# Processed by: cddbd v1.5.2PL0 Copyright (c) Steve Scherf et al.
# Submitted via: ExactAudioCopyFreeDBPlugin 1.0
#
DISCID=750a0c09
DTITLE=Peter Green - Soho Live at Ronnie Scotts [Disc 2]
DYEAR=2001
DGENRE=Blues
TTITLE0=Travelling Riverside Blues
TTITLE1=Steady Rollin' Man
TTITLE2=Honeymoon Blues
TTITLE3=Last Fair Deal Gone Down
TTITLE4=If I Had Possession Over Judgement Day
TTITLE5=Green Manalishi
TTITLE6=Goin' Down
TTITLE7=Help Me
TTITLE8=Look Over Yonder Wall
EXTD=
EXTT0=
EXTT1=
EXTT2=
EXTT3=
EXTT4=
EXTT5=
EXTT6=
EXTT7=
EXTT8=
PLAYORDER=
